<mxfile host="app.diagrams.net" modified="2024-03-24T13:40:58.796Z" agent="Mozilla/5.0 (Macintosh; Intel Mac OS X 10_15_7) AppleWebKit/605.1.15 (KHTML, like Gecko) Version/17.1 Safari/605.1.15" version="24.1.0" etag="9bTIcSmJKnxxX0UaXSn2" type="github">
  <diagram name="페이지-1" id="B7X7RAAIpjtTaOG_oA14">
    <mxGraphModel>
      <root>
        <mxCell id="0" />
        <mxCell id="1" parent="0" />
      </root>
    </mxGraphModel>
  </diagram>
</mxfile>
